<svg width="79" height="79" viewBox="0 0 79 79" fill="none" xmlns="http://www.w3.org/2000/svg">
<path d="M57.5836 29.0078C59.7989 27.4012 61.4488 25.1347 62.297 22.533C63.1452 19.9312 63.1482 17.1278 62.3055 14.5242C61.4628 11.9207 59.8176 9.65072 57.6057 8.03948C55.3938 6.42824 52.7287 5.55844 49.9922 5.55469H29.0078C26.2713 5.55844 23.6062 6.42824 21.3943 8.03948C19.1824 9.65072 17.5373 11.9207 16.6945 14.5242C15.8518 17.1278 15.8548 19.9312 16.703 22.533C17.5512 25.1347 19.2011 27.4012 21.4164 29.0078C19.7533 30.2056 18.3987 31.7816 17.4644 33.6059C16.5301 35.4302 16.0428 37.4504 16.0428 39.5C16.0428 41.5496 16.5301 43.5698 17.4644 45.3941C18.3987 47.2184 19.7533 48.7944 21.4164 49.9922C19.6174 51.2922 18.1824 53.0325 17.2489 55.0462C16.3154 57.0599 15.9147 59.2796 16.0852 61.4926C16.2556 63.7056 16.9915 65.8377 18.2224 67.6847C19.4532 69.5318 21.1378 71.0317 23.1147 72.0409C25.0915 73.0501 27.2944 73.5348 29.5123 73.4484C31.7302 73.362 33.8887 72.7075 35.7811 71.5475C37.6734 70.3876 39.2362 68.7612 40.3197 66.824C41.4031 64.8869 41.971 62.7039 41.9688 60.4844V49.6527C43.3141 50.7878 44.8765 51.637 46.5607 52.1485C48.245 52.66 50.0158 52.8231 51.7651 52.6277C53.5144 52.4324 55.2057 51.8828 56.7356 51.0125C58.2656 50.1421 59.6023 48.9692 60.6641 47.5654C61.7259 46.1615 62.4906 44.5561 62.9117 42.8469C63.3327 41.1378 63.4012 39.3609 63.1129 37.6244C62.8247 35.888 62.1858 34.2284 61.2351 32.747C60.2845 31.2656 59.0421 29.9933 57.5836 29.0078ZM58.0156 18.5156C58.0075 20.6411 57.1596 22.6771 55.6566 24.1801C54.1537 25.683 52.1176 26.5309 49.9922 26.5391H41.9688V10.4922H49.9922C52.1176 10.5003 54.1537 11.3482 55.6566 12.8512C57.1596 14.3541 58.0075 16.3902 58.0156 18.5156ZM49.9922 47.5234C47.8642 47.5234 45.8235 46.6781 44.3188 45.1734C42.8141 43.6687 41.9688 41.6279 41.9688 39.5C41.9688 37.3721 42.8141 35.3313 44.3188 33.8266C45.8235 32.3219 47.8642 31.4766 49.9922 31.4766C52.1201 31.4766 54.1609 32.3219 55.6656 33.8266C57.1703 35.3313 58.0156 37.3721 58.0156 39.5C58.0156 41.6279 57.1703 43.6687 55.6656 45.1734C54.1609 46.6781 52.1201 47.5234 49.9922 47.5234Z" fill="white"/>
</svg>
