<svg width="72" height="72" viewBox="0 0 72 72" fill="none" xmlns="http://www.w3.org/2000/svg">
<path d="M7.80002 31.77L25.14 14.4L30.21 19.5C29.49 22.05 30.66 24.84 33 26.19V42.81C31.2 43.83 30 45.78 30 48C30 49.5913 30.6322 51.1174 31.7574 52.2426C32.8826 53.3679 34.4087 54 36 54C37.5913 54 39.1174 53.3679 40.2427 52.2426C41.3679 51.1174 42 49.5913 42 48C42 45.78 40.8 43.83 39 42.81V28.23L45.21 34.5C45 34.95 45 35.46 45 36C45 37.5913 45.6322 39.1174 46.7574 40.2426C47.8826 41.3679 49.4087 42 51 42C52.5913 42 54.1174 41.3679 55.2427 40.2426C56.3679 39.1174 57 37.5913 57 36C57 34.4087 56.3679 32.8826 55.2427 31.7574C54.1174 30.6321 52.5913 30 51 30C50.46 30 49.95 30 49.5 30.21L41.79 22.5C42.1625 21.1105 42.0181 19.633 41.3836 18.342C40.7491 17.0509 39.6676 16.034 38.34 15.48C37.05 15 35.7 14.88 34.5 15.21L29.4 10.14L31.77 7.79999C34.11 5.42999 37.89 5.42999 40.23 7.79999L64.2 31.77C66.57 34.11 66.57 37.89 64.2 40.23L40.23 64.2C37.89 66.57 34.11 66.57 31.77 64.2L7.80002 40.23C5.43002 37.89 5.43002 34.11 7.80002 31.77Z" fill="white"/>
</svg>
