<svg width="72" height="72" viewBox="0 0 72 72" fill="none" xmlns="http://www.w3.org/2000/svg">
<g clip-path="url(#clip0_4_492)">
<mask id="mask0_4_492" style="mask-type:luminance" maskUnits="userSpaceOnUse" x="0" y="0" width="72" height="72">
<path d="M0 0H72V72H0V0Z" fill="white"/>
</mask>
<g mask="url(#mask0_4_492)">
<path d="M15.24 0H18.486V3.207H21.456V0H24.702V9.708H21.456V6.459H18.486V9.708H15.243L15.24 0ZM28.968 3.219H26.112V0H35.073V3.219H32.214V9.708H28.968V3.219ZM36.495 0H39.879L41.961 3.411L44.04 0H47.424V9.708H44.193V4.896L41.961 8.349H41.904L39.669 4.899V9.708H36.495V0ZM49.038 0H52.287V6.501H56.847V9.711H49.038V0Z" fill="white"/>
<path fill-rule="evenodd" clip-rule="evenodd" d="M15.138 66.216L9 14.151H63L56.859 66.21L35.97 72L15.138 66.216ZM27.549 37.716L26.967 31.176H51.402L51.972 24.792H19.992L21.714 44.103H43.845L43.104 52.383L35.982 54.309H35.976L28.866 52.389L28.41 47.298H21.996L22.89 57.324L35.97 60.954L49.071 57.324L50.667 39.432L50.823 37.719H27.549V37.716Z" fill="white"/>
</g>
</g>
<defs>
<clipPath id="clip0_4_492">
<rect width="72" height="72" fill="white"/>
</clipPath>
</defs>
</svg>
