<svg width="72" height="72" viewBox="0 0 72 72" fill="none" xmlns="http://www.w3.org/2000/svg">
<path d="M9 9H63V63H9V9ZM58.575 50.121C58.182 47.658 56.577 45.588 51.819 43.656C50.163 42.879 48.324 42.342 47.772 41.094C47.568 40.35 47.538 39.948 47.67 39.507C48.009 38.055 49.731 37.62 51.081 38.022C51.96 38.292 52.77 38.967 53.277 40.05C55.602 38.529 55.602 38.529 57.225 37.518C56.616 36.576 56.313 36.165 55.908 35.76C54.489 34.176 52.599 33.366 49.53 33.435L47.946 33.636C46.425 34.008 44.973 34.821 44.097 35.898C41.532 38.802 42.273 43.863 45.378 45.96C48.447 48.255 52.941 48.759 53.514 50.919C54.054 53.553 51.558 54.396 49.089 54.093C47.268 53.685 46.254 52.776 45.141 51.087L41.025 53.451C41.496 54.528 42.036 55.002 42.846 55.947C46.761 59.895 56.55 59.694 58.305 53.685C58.368 53.484 58.845 52.101 58.473 49.974L58.575 50.121ZM38.364 33.819H33.306C33.306 38.178 33.285 42.513 33.285 46.881C33.285 49.653 33.426 52.197 32.973 52.98C32.232 54.531 30.315 54.333 29.448 54.057C28.557 53.619 28.104 53.01 27.579 52.134C27.438 51.9 27.333 51.696 27.294 51.696L23.19 54.228C23.877 55.647 24.879 56.865 26.172 57.639C28.095 58.788 30.678 59.16 33.384 58.554C35.148 58.044 36.669 56.997 37.458 55.377C38.61 53.286 38.364 50.718 38.355 47.85C38.379 43.227 38.355 38.601 38.355 33.945L38.364 33.819Z" fill="white"/>
</svg>
