<svg width="72" height="72" viewBox="0 0 72 72" fill="none" xmlns="http://www.w3.org/2000/svg">
<g clip-path="url(#clip0_4_489)">
<path d="M22.506 0H30.24V3.234H25.74V6.468H30.24V9.702H22.506V0ZM31.785 0H39.522V2.814H35.022V3.375H39.522V9.843H31.785V6.891H36.285V6.327H31.785V0ZM41.07 0H48.801V2.814H44.301V3.375H48.801V9.843H41.07V6.891H45.57V6.327H41.07V0Z" fill="white"/>
<path fill-rule="evenodd" clip-rule="evenodd" d="M35.973 72L15.141 66.216L9 14.151H63L56.862 66.21L35.973 72ZM21.141 37.719L21.714 44.103H43.845L43.104 52.383L35.982 54.309H35.976L28.866 52.389L28.41 47.298H21.999L22.893 57.324L35.973 60.954L49.074 57.324L50.67 39.432L50.826 37.719L51.978 24.792H19.992L20.574 31.179H44.982L44.4 37.719H21.141Z" fill="white"/>
</g>
<defs>
<clipPath id="clip0_4_489">
<rect width="72" height="72" fill="white"/>
</clipPath>
</defs>
</svg>
