<svg xmlns="http://www.w3.org/2000/svg" version="1.1" xmlns:xlink="http://www.w3.org/1999/xlink" xmlns:svgjs="http://svgjs.dev/svgjs" width="2000" height="1247" viewBox="0 0 2000 1247"><g transform="matrix(1,0,0,1,-1.2121212121212466,0.504858299595071)"><svg viewBox="0 0 396 247" data-background-color="#ffffff" preserveAspectRatio="xMidYMid meet" height="1247" width="2000" xmlns="http://www.w3.org/2000/svg" xmlns:xlink="http://www.w3.org/1999/xlink"><g id="tight-bounds" transform="matrix(1,0,0,1,0.2400000000000091,-0.09999999999999432)"><svg viewBox="0 0 395.52 247.2" height="247.2" width="395.52"><g><svg></svg></g><g><svg viewBox="0 0 395.52 247.2" height="247.2" width="395.52"><mask id="cf9aaa89-6cc4-44e0-bf55-8886b4b14d19"><rect width="640" height="400" fill="white"></rect><g transform="matrix(1,0,0,1,124.42523656942737,37.08)"><svg viewBox="0 0 146.66952686114524 173.04" height="173.04" width="146.66952686114524"><g><svg viewBox="0 0 146.66952686114524 173.04" height="173.04" width="146.66952686114524"><g><svg viewBox="0 0 146.66952686114524 173.04" height="173.04" width="146.66952686114524"><g><svg viewBox="0 0 146.66952686114524 173.04" height="173.04" width="146.66952686114524"><g id="SvgjsG1967"><svg viewBox="0 0 146.66952686114524 173.04" height="173.04" width="146.66952686114524" id="SvgjsSvg1966"><g><svg viewBox="0 0 146.66952686114524 173.04" height="173.04" width="146.66952686114524"><g transform="matrix(1,0,0,1,0,0)"><svg width="146.66952686114524" viewBox="-3.45 -40.19939019235199 37.7 44.09939019235199" height="173.04" data-palette-color="#c7619d"><path d="M5.45-1.5L5.45-1.5Q5.05-0.5 4.08-0.1 3.1 0.3 2.13-0.1 1.15-0.5 0.75-1.48 0.35-2.45 0.75-3.4L0.75-3.4Q1.75-5.85 3.38-10.85 5-15.85 5.7-17.6L5.7-17.6Q6.05-18.6 8.55-24.7L8.55-24.7Q10.9-30.7 12.2-34.45L12.2-34.45Q12.55-35.45 13.48-35.93 14.4-36.4 15.4-36.05L15.4-36.05Q15.85-35.9 16.2-35.6L16.2-35.6Q17.2-35.25 17.6-34.25L17.6-34.25 30.05-3.5Q30.45-2.5 30.05-1.53 29.65-0.55 28.68-0.15 27.7 0.25 26.73-0.15 25.75-0.55 25.35-1.5L25.35-1.5 21.6-11.2Q19.55-11.1 19.3-11.1L19.3-11.1Q12.55-10.85 8.7-10.85L8.7-10.85Q6.45-4.25 5.45-1.5L5.45-1.5ZM10.55-15.95L10.55-15.95Q14.75-16 19.55-16.15L19.55-16.15 15-27.15 10.55-15.95Z" opacity="1" transform="matrix(1,0,0,1,0,0)" fill="black" class="wordmark-text-0" id="SvgjsPath1965" stroke-width="7" stroke="black" stroke-linejoin="round"></path></svg></g></svg></g></svg></g></svg></g></svg></g></svg></g></svg></g></mask><g transform="matrix(1,0,0,1,124.42523656942737,37.08)"><svg viewBox="0 0 146.66952686114524 173.04" height="173.04" width="146.66952686114524"><g><svg viewBox="0 0 146.66952686114524 173.04" height="173.04" width="146.66952686114524"><g><svg viewBox="0 0 146.66952686114524 173.04" height="173.04" width="146.66952686114524"><g><svg viewBox="0 0 146.66952686114524 173.04" height="173.04" width="146.66952686114524"><g id="textblocktransform"><svg viewBox="0 0 146.66952686114524 173.04" height="173.04" width="146.66952686114524" id="textblock"><g><svg viewBox="0 0 146.66952686114524 173.04" height="173.04" width="146.66952686114524"><g transform="matrix(1,0,0,1,0,0)"><svg width="146.66952686114524" viewBox="-3.45 -40.19939019235199 37.7 44.09939019235199" height="173.04" data-palette-color="#c7619d"><path d="M5.45-1.5L5.45-1.5Q5.05-0.5 4.08-0.1 3.1 0.3 2.13-0.1 1.15-0.5 0.75-1.48 0.35-2.45 0.75-3.4L0.75-3.4Q1.75-5.85 3.38-10.85 5-15.85 5.7-17.6L5.7-17.6Q6.05-18.6 8.55-24.7L8.55-24.7Q10.9-30.7 12.2-34.45L12.2-34.45Q12.55-35.45 13.48-35.93 14.4-36.4 15.4-36.05L15.4-36.05Q15.85-35.9 16.2-35.6L16.2-35.6Q17.2-35.25 17.6-34.25L17.6-34.25 30.05-3.5Q30.45-2.5 30.05-1.53 29.65-0.55 28.68-0.15 27.7 0.25 26.73-0.15 25.75-0.55 25.35-1.5L25.35-1.5 21.6-11.2Q19.55-11.1 19.3-11.1L19.3-11.1Q12.55-10.85 8.7-10.85L8.7-10.85Q6.45-4.25 5.45-1.5L5.45-1.5ZM10.55-15.95L10.55-15.95Q14.75-16 19.55-16.15L19.55-16.15 15-27.15 10.55-15.95Z" opacity="1" transform="matrix(1,0,0,1,0,0)" fill="#c7619d" class="wordmark-text-0" data-fill-palette-color="primary" id="text-0"></path></svg></g></svg></g></svg></g></svg></g></svg></g></svg></g></svg></g><g mask="url(#cf9aaa89-6cc4-44e0-bf55-8886b4b14d19)"><g transform="matrix(2.9811550151975683, 0, 0, 2.9811550151975683, 75.16, 1)"><svg xmlns="http://www.w3.org/2000/svg" xmlns:xlink="http://www.w3.org/1999/xlink" version="1.1" x="0" y="0" viewBox="9.874999999999998 8.870999999999999 82.25 82.25" enable-background="new 0 0 100 100" xml:space="preserve" height="82.25" width="82.25" class="icon-none" data-fill-palette-color="accent" id="none"><g fill="#7f4ced" data-fill-palette-color="accent"><g fill="#7f4ced" data-fill-palette-color="accent"><g fill="#7f4ced" data-fill-palette-color="accent"><path d="M92.125 19.833v60.322c0 6.059-4.907 10.966-10.967 10.966H20.842c-6.059 0-10.967-4.907-10.967-10.966V19.833c0-6.06 4.908-10.962 10.967-10.962h60.316C87.218 8.872 92.125 13.773 92.125 19.833zM86.641 80.155V19.833c0-3.028-2.461-5.483-5.482-5.483H20.842c-3.028 0-5.483 2.455-5.483 5.483v60.322c0 3.016 2.455 5.483 5.483 5.483h60.316C84.18 85.638 86.641 83.171 86.641 80.155z" fill="#7f4ced" data-fill-palette-color="accent"></path><path d="M81.158 71.924v5.483c0 1.514-1.229 2.748-2.742 2.748h-5.483c-1.514 0-2.741-1.234-2.741-2.748v-5.483c0-1.514 1.228-2.736 2.741-2.736h5.483C79.93 69.188 81.158 70.411 81.158 71.924z" fill="#7f4ced" data-fill-palette-color="accent"></path><path d="M81.158 55.474v5.483c0 1.519-1.229 2.748-2.742 2.748h-5.483c-1.514 0-2.741-1.229-2.741-2.748v-5.483c0-1.514 1.228-2.736 2.741-2.736h5.483C79.93 52.738 81.158 53.96 81.158 55.474z" fill="#7f4ced" data-fill-palette-color="accent"></path><path d="M81.158 39.03v5.482c0 1.514-1.229 2.742-2.742 2.742h-5.483c-1.514 0-2.741-1.229-2.741-2.742V39.03c0-1.514 1.228-2.747 2.741-2.747h5.483C79.93 36.283 81.158 37.516 81.158 39.03z" fill="#7f4ced" data-fill-palette-color="accent"></path><path d="M81.158 22.581v5.484c0 1.512-1.229 2.735-2.742 2.735h-5.483c-1.514 0-2.741-1.223-2.741-2.735v-5.484c0-1.514 1.228-2.747 2.741-2.747h5.483C79.93 19.833 81.158 21.066 81.158 22.581z" fill="#7f4ced" data-fill-palette-color="accent"></path><path d="M64.708 71.924v5.483c0 1.514-1.229 2.748-2.743 2.748h-5.481c-1.514 0-2.741-1.234-2.741-2.748v-5.483c0-1.514 1.228-2.736 2.741-2.736h5.481C63.479 69.188 64.708 70.411 64.708 71.924z" fill="#7f4ced" data-fill-palette-color="accent"></path><path d="M64.708 55.474v5.483c0 1.519-1.229 2.748-2.743 2.748h-5.481c-1.514 0-2.741-1.229-2.741-2.748v-5.483c0-1.514 1.228-2.736 2.741-2.736h5.481C63.479 52.738 64.708 53.96 64.708 55.474z" fill="#7f4ced" data-fill-palette-color="accent"></path><path d="M64.708 39.03v5.482c0 1.514-1.229 2.742-2.743 2.742h-5.481c-1.514 0-2.741-1.229-2.741-2.742V39.03c0-1.514 1.228-2.747 2.741-2.747h5.481C63.479 36.283 64.708 37.516 64.708 39.03z" fill="#7f4ced" data-fill-palette-color="accent"></path><path d="M64.708 22.581v5.484c0 1.512-1.229 2.735-2.743 2.735h-5.481c-1.514 0-2.741-1.223-2.741-2.735v-5.484c0-1.514 1.228-2.747 2.741-2.747h5.481C63.479 19.833 64.708 21.066 64.708 22.581z" fill="#7f4ced" data-fill-palette-color="accent"></path><path d="M48.258 71.924v5.483c0 1.514-1.228 2.748-2.742 2.748h-5.484c-1.513 0-2.74-1.234-2.74-2.748v-5.483c0-1.514 1.228-2.736 2.74-2.736h5.484C47.03 69.188 48.258 70.411 48.258 71.924z" fill="#7f4ced" data-fill-palette-color="accent"></path><path d="M48.258 55.474v5.483c0 1.519-1.228 2.748-2.742 2.748h-5.484c-1.513 0-2.74-1.229-2.74-2.748v-5.483c0-1.514 1.228-2.736 2.74-2.736h5.484C47.03 52.738 48.258 53.96 48.258 55.474z" fill="#7f4ced" data-fill-palette-color="accent"></path><path d="M48.258 39.03v5.482c0 1.514-1.228 2.742-2.742 2.742h-5.484c-1.513 0-2.74-1.229-2.74-2.742V39.03c0-1.514 1.228-2.747 2.74-2.747h5.484C47.03 36.283 48.258 37.516 48.258 39.03z" fill="#7f4ced" data-fill-palette-color="accent"></path><path d="M48.258 22.581v5.484c0 1.512-1.228 2.735-2.742 2.735h-5.484c-1.513 0-2.74-1.223-2.74-2.735v-5.484c0-1.514 1.228-2.747 2.74-2.747h5.484C47.03 19.833 48.258 21.066 48.258 22.581z" fill="#7f4ced" data-fill-palette-color="accent"></path><path d="M31.81 71.924v5.483c0 1.514-1.23 2.748-2.744 2.748h-5.482c-1.513 0-2.741-1.234-2.741-2.748v-5.483c0-1.514 1.229-2.736 2.741-2.736h5.482C30.579 69.188 31.81 70.411 31.81 71.924z" fill="#7f4ced" data-fill-palette-color="accent"></path><path d="M31.81 55.474v5.483c0 1.519-1.23 2.748-2.744 2.748h-5.482c-1.513 0-2.741-1.229-2.741-2.748v-5.483c0-1.514 1.229-2.736 2.741-2.736h5.482C30.579 52.738 31.81 53.96 31.81 55.474z" fill="#7f4ced" data-fill-palette-color="accent"></path><path d="M31.81 39.03v5.482c0 1.514-1.23 2.742-2.744 2.742h-5.482c-1.513 0-2.741-1.229-2.741-2.742V39.03c0-1.514 1.229-2.747 2.741-2.747h5.482C30.579 36.283 31.81 37.516 31.81 39.03z" fill="#7f4ced" data-fill-palette-color="accent"></path><path d="M31.81 22.581v5.484c0 1.512-1.23 2.735-2.744 2.735h-5.482c-1.513 0-2.741-1.223-2.741-2.735v-5.484c0-1.514 1.229-2.747 2.741-2.747h5.482C30.579 19.833 31.81 21.066 31.81 22.581z" fill="#7f4ced" data-fill-palette-color="accent"></path></g></g></g></svg></g></g></svg></g><defs></defs></svg><rect width="395.52" height="247.2" fill="none" stroke="none" visibility="hidden"></rect></g></svg></g></svg>